<svg width="828" height="168" viewBox="0 0 828 168" fill="none" xmlns="http://www.w3.org/2000/svg">
<path d="M451.429 59.3285C456.319 34.9485 474.909 17.1185 499.429 13.5985C518.169 10.9085 535.379 14.6785 550.039 27.2585C560.039 35.8285 565.349 47.1485 568.179 59.7585C570.569 70.3585 571.009 81.0784 568.829 91.7384C564.339 113.668 552.139 129.408 530.659 136.838C508.789 144.408 481.949 139.898 465.479 121.918C457.219 112.908 452.619 102.008 450.549 90.0585C448.789 79.8485 449.109 69.6585 451.429 59.3285ZM546.899 92.6185C550.229 78.6685 549.379 65.0685 543.459 51.9085C533.649 30.1085 510.269 27.1485 494.329 33.6085C484.409 37.6285 478.399 45.6585 474.649 55.3485C470.179 66.9285 469.909 78.8485 472.409 90.9385C477.179 114.038 496.679 126.778 518.699 121.658C534.069 118.088 542.679 107.718 546.899 92.6185Z" fill="#FBFBFA"/>
<path d="M643.949 80.0084C644.009 69.6784 644.099 59.3584 644.119 49.0284C644.139 38.4484 644.099 27.8684 644.089 17.2884C644.089 16.5484 644.089 15.8084 644.089 14.8784C650.489 14.8784 656.689 14.8784 663.189 14.8784C663.189 30.1484 663.189 45.3484 663.189 61.1684C664.059 60.4384 664.519 60.1684 664.819 59.7784C673.559 48.1484 685.519 45.2484 699.049 47.8484C716.159 51.1384 725.509 62.5584 729.769 78.8084C732.019 87.3984 732.419 96.0984 730.679 104.798C727.659 119.808 720.259 131.788 705.299 137.158C692.029 141.938 679.359 140.258 668.409 130.618C666.629 129.048 665.199 127.088 663.069 124.708C663.069 127.488 663.059 129.658 663.069 131.828C663.089 137.418 663.089 137.458 657.599 137.458C653.199 137.468 648.799 137.358 644.239 136.958C644.089 122.068 644.099 107.518 644.079 92.9584C644.079 88.6384 643.999 84.3284 643.949 80.0084ZM674.349 119.598C677.199 120.888 679.939 122.788 682.929 123.358C693.799 125.438 703.439 120.338 707.999 110.178C713.239 98.4984 712.879 86.6084 707.679 75.0884C703.729 66.3484 696.499 61.9484 686.779 62.0084C677.299 62.0784 670.809 66.7584 666.779 75.1584C662.809 83.4384 662.389 92.1684 663.699 101.028C664.799 108.408 667.699 114.908 674.349 119.598Z" fill="#FBFBFA"/>
<path d="M163.549 113.088C163.559 92.4284 163.599 72.0085 163.549 51.5985C163.539 49.3985 163.999 48.5184 166.419 48.6084C171.569 48.8084 176.729 48.6685 182.269 48.6685C182.269 52.9685 182.269 57.0485 182.269 61.1385C182.469 61.1985 182.665 61.2551 182.859 61.3085C183.269 60.8685 183.749 60.4785 184.079 59.9885C191.799 48.4685 204.169 45.4584 216.839 47.6484C234.769 50.7484 246.319 65.8785 248.759 82.0285C250.589 94.2185 250.049 106.178 244.709 117.458C237.009 133.718 219.329 142.398 201.799 138.628C195.029 137.168 189.439 133.428 184.869 128.218C184.289 127.568 183.739 126.878 183.179 126.208C182.966 126.268 182.752 126.332 182.539 126.398C182.539 140.138 182.539 153.878 182.539 167.798C176.009 167.798 169.889 167.798 163.549 167.798C163.549 149.618 163.549 131.478 163.549 113.088ZM204.439 62.0884C198.239 62.3384 193.289 65.1384 189.289 69.6884C185.259 74.2784 183.479 79.8885 182.639 85.7985C181.279 95.4085 181.939 104.748 187.219 113.228C196.059 127.428 216.099 127.578 224.719 113.288C231.709 101.718 231.299 89.3885 226.839 76.9985C223.699 68.2885 214.909 61.4184 204.439 62.0884Z" fill="#FBFBFA"/>
<path d="M284.089 99.2185C283.709 99.1785 283.319 99.1284 282.589 99.0984C282.029 99.1484 281.809 99.1785 281.589 99.2185C281.359 99.1785 281.129 99.1284 280.529 99.0984C279.449 99.1584 278.749 99.2084 277.779 99.2884C278.079 101.068 278.339 102.578 278.599 104.088C279.419 113.488 286.669 121.718 295.759 123.768C305.529 125.968 314.079 124.218 320.849 116.368C321.609 115.498 322.429 114.558 322.809 113.508C323.729 110.978 325.389 110.318 327.959 110.468C331.869 110.688 335.789 110.518 339.699 110.538C340.579 110.538 341.449 110.648 342.599 110.718C340.649 117.378 337.539 122.938 332.909 127.608C314.649 146.058 280.179 142.928 265.749 121.458C261.099 114.528 258.999 106.708 258.419 98.4284C257.659 87.5384 259.439 77.1185 264.709 67.5585C270.989 56.1585 280.979 49.6685 293.709 47.7485C308.219 45.5685 321.429 48.6385 332.009 59.4185C339.899 67.4485 343.099 77.5684 343.729 88.5984C343.909 91.8384 343.849 95.0984 343.739 98.6284C342.659 98.9684 341.759 99.0584 340.849 99.0684C326.569 99.0751 312.292 99.0851 298.019 99.0984C293.379 99.0984 288.729 99.1785 284.089 99.2185ZM299.449 62.1084C287.639 62.9484 276.829 74.4884 277.949 85.0884C293.369 85.0884 308.799 85.0884 324.789 85.0884C324.189 82.2484 323.869 79.7085 323.109 77.3085C320.469 68.9585 312.009 61.2884 299.449 62.1084Z" fill="#FBFBFA"/>
<path d="M416.029 81.9785C416.889 69.8285 407.439 61.6685 394.839 63.6785C384.129 65.3885 377.749 72.3585 376.249 84.0485C375.999 86.0285 375.899 88.0385 375.889 90.0285C375.859 104.948 375.829 119.858 375.919 134.768C375.939 136.988 375.329 137.648 373.129 137.568C368.549 137.398 363.969 137.448 359.379 137.518C357.629 137.538 356.909 137.098 356.909 135.128C356.989 107.138 356.979 79.1485 356.989 51.1585C356.989 50.4285 357.059 49.6885 357.109 48.7685C363.199 48.7685 369.149 48.7685 375.449 48.7685C375.449 53.2485 375.449 57.7285 375.449 62.7785C377.369 60.3285 378.719 58.2485 380.419 56.5185C389.289 47.4785 400.249 45.7185 412.209 47.6985C421.069 49.1585 427.779 53.7885 432.029 61.6685C434.379 66.0185 435.829 70.7585 435.869 75.7485C436.009 95.6585 436.059 115.568 436.189 135.478C436.199 137.028 435.639 137.528 434.159 137.518C428.829 137.458 423.489 137.508 418.159 137.418C417.509 137.398 416.859 136.778 416.199 136.038C416.209 118.318 416.239 101.008 416.249 83.6885C416.249 83.1185 416.109 82.5485 416.029 81.9785Z" fill="#FBFBFA"/>
<path d="M2.80894 131.278C6.83894 122.398 12.2389 114.608 17.5389 106.768C17.8923 106.962 18.2423 107.155 18.589 107.348C17.619 109.398 16.4591 111.388 15.7091 113.508C14.2591 117.638 12.609 121.758 11.829 126.028C11.109 130.008 13.6989 132.448 17.7889 132.588C23.2689 132.778 27.9189 130.238 32.5589 127.818C49.3189 119.088 64.1489 107.548 78.7889 95.7485C94.3089 83.2385 108.169 69.0184 121.309 54.0484C129.489 44.7284 137.629 35.3784 143.869 24.5984C145.309 22.1084 146.379 19.3284 147.169 16.5584C148.419 12.2084 146.169 9.41845 141.739 10.2384C137.939 10.9484 134.319 12.6384 130.619 13.9084C129.839 14.1684 129.079 14.5084 128.299 14.8084C128.146 14.5484 127.989 14.2918 127.829 14.0384C130.549 11.8984 133.149 9.57844 136.009 7.65844C140.859 4.39844 145.989 1.65844 151.789 0.438444C154.809 -0.201556 157.819 -0.521557 160.049 2.25844C162.249 4.99844 161.929 8.13844 160.619 11.0084C157.819 17.0984 154.879 23.1484 151.679 29.0484C149.439 33.1984 146.579 37.0184 144.199 41.0984C143.669 41.9884 143.709 43.4284 143.959 44.5184C145.819 52.7684 148.629 60.8984 149.569 69.2384C151.929 90.2484 147.479 109.838 132.529 125.408C116.799 141.778 96.9989 147.448 74.5689 143.768C67.7689 142.658 61.3391 140.538 55.4691 136.878C55.1391 136.668 54.8589 136.388 54.2389 135.908C55.4589 135.238 56.419 134.678 57.409 134.178C63.099 131.268 68.7789 128.318 74.5289 125.528C75.4589 125.078 76.789 125.058 77.839 125.288C96.719 129.468 116.049 120.738 124.919 103.748C129.799 94.4085 131.209 84.3184 130.219 73.9284C129.819 69.6784 128.749 65.4884 127.869 60.6284C126.639 61.4884 126.099 61.7884 125.649 62.1884C113.089 73.6084 100.649 85.1484 87.9591 96.4184C68.5291 113.688 47.8389 129.288 25.0389 141.888C20.3889 144.458 15.0689 145.878 9.98887 147.618C8.63887 148.088 7.00891 147.958 5.52891 147.818C1.82891 147.468 -0.43105 145.148 0.06895 141.488C0.52895 138.088 1.81894 134.798 2.80894 131.278Z" fill="#FBFBFA"/>
<path d="M32.5088 40.4884C41.2288 27.7784 53.1888 20.0684 67.7288 16.0184C87.0688 10.6284 105.229 14.0784 122.649 23.2384C122.909 23.3684 123.079 23.6884 123.469 24.1184C119.629 25.9884 115.919 27.7184 112.279 29.5984C109.409 31.0784 106.659 32.7984 103.789 34.2784C103.099 34.6284 102.049 34.6484 101.279 34.4184C91.9788 31.7184 82.5688 30.8284 73.2288 33.7884C57.3488 38.8184 47.0188 49.3784 43.0188 65.6884C40.5888 75.5784 40.8688 85.5284 43.7488 95.3084C44.6288 98.2884 46.0289 101.188 47.5789 103.898C48.4789 105.468 48.2289 106.108 46.7989 106.748C42.4889 108.688 38.1489 110.588 33.8689 112.608C32.4389 113.278 31.599 112.818 30.679 111.728C27.419 107.868 25.8389 103.188 24.5589 98.4784C20.0189 81.7884 20.7089 65.3384 27.5589 49.3384C28.8589 46.3084 30.7588 43.5284 32.5088 40.4884Z" fill="#FBFBFA"/>
<path d="M776.549 62.5884C776.519 58.2384 776.489 53.8884 776.609 49.2584C776.859 48.8084 776.959 48.6384 777.059 48.4684C777.449 48.4784 777.829 48.4884 778.559 48.5984C780.959 48.6184 783.009 48.5484 785.059 48.4684C790.499 48.6884 790.489 48.6884 790.489 43.2684C790.499 37.3584 790.509 31.4584 790.759 25.2784C797.199 25.0384 803.389 25.0584 809.579 25.0884C809.579 32.7884 809.579 40.4984 809.579 48.5084C815.529 48.5084 821.079 48.5084 826.999 48.6584C827.519 52.3484 827.739 55.8784 827.799 59.4184C827.829 60.6984 827.489 61.9884 827.319 63.2784C822.159 63.2684 816.999 63.3184 811.849 63.2284C810.199 63.1984 809.719 63.7684 809.729 65.3884C809.809 81.7684 809.829 98.1584 809.809 114.938C810.349 116.618 810.929 117.898 811.509 119.178C811.749 119.468 811.979 119.758 812.399 120.278C814.429 121.148 816.289 121.788 818.139 122.428C818.349 122.468 818.559 122.508 819.099 122.648C822.169 122.858 824.919 122.968 827.659 123.068C827.669 127.518 827.679 131.958 827.559 136.698C826.499 137.398 825.549 137.818 824.599 138.228C824.079 138.248 823.559 138.258 822.629 138.218C820.689 138.348 819.139 138.528 817.599 138.708C816.729 138.688 815.859 138.658 814.629 138.528C813.179 138.428 812.089 138.408 810.999 138.398C810.489 138.308 809.969 138.218 809.149 138.008C807.879 137.718 806.939 137.548 805.999 137.388C804.879 136.928 803.759 136.468 802.389 135.818C801.769 135.508 801.399 135.388 801.019 135.258C797.279 133.088 794.029 130.438 792.079 126.128C791.839 125.598 791.679 125.348 791.519 125.098C791.489 124.888 791.459 124.668 791.419 124.128C791.109 122.728 790.829 121.668 790.539 120.598C790.539 101.648 790.539 82.6984 790.539 63.1784C786.089 63.1784 781.809 63.1784 777.269 63.0384C776.849 62.7984 776.699 62.6984 776.549 62.5884Z" fill="#FBFBFA"/>
<path d="M584.379 93.0885C584.379 83.8485 584.409 74.8485 584.329 65.8585C584.309 64.1785 584.879 63.0485 586.139 62.0385C590.889 58.2685 595.519 54.3385 600.379 50.7085C601.729 49.6985 603.689 49.0685 605.379 49.0385C615.019 48.8885 624.669 48.9685 634.519 48.9685C634.519 54.5985 634.519 60.1285 634.519 65.9385C633.669 65.9885 632.789 66.0685 631.909 66.0685C623.339 66.0685 614.759 66.1185 606.179 65.9885C603.989 65.9485 603.339 66.5685 603.349 68.7785C603.429 90.6785 603.369 112.588 603.459 134.488C603.469 136.878 602.839 137.668 600.409 137.568C596.009 137.378 591.579 137.428 587.169 137.548C585.089 137.608 584.299 137.148 584.319 134.808C584.449 120.988 584.379 107.158 584.379 93.0885Z" fill="#FBFBFA"/>
<path d="M744.129 50.0884C744.809 49.8884 745.489 49.5184 746.179 49.5184C751.179 49.4784 756.179 49.5684 761.179 49.5184C762.849 49.4984 763.519 49.9584 763.509 51.7784C763.449 79.6884 763.429 107.608 763.509 135.518C763.509 137.958 762.819 138.668 760.429 138.588C755.199 138.428 749.959 138.538 744.529 138.538C744.459 137.168 744.389 136.028 744.309 134.498C744.289 115.158 744.289 96.2084 744.259 77.2584C744.239 68.1984 744.169 59.1384 744.129 50.0884Z" fill="#FBFBFA"/>
<path d="M763.419 33.9985C763.429 35.2285 763.429 36.2185 763.429 37.4685C757.029 37.4685 750.779 37.4685 744.359 37.4685C744.359 30.7185 744.359 23.9385 744.359 16.9385C750.589 16.9385 756.849 16.9385 763.419 16.9385C763.419 22.5385 763.419 28.1485 763.419 33.9985Z" fill="#FBFBFA"/>
</svg>
